<?xml version="1.0" encoding="UTF-8" standalone="no"?>
<svg
   xmlns:dc="http://purl.org/dc/elements/1.1/"
   xmlns:cc="http://creativecommons.org/ns#"
   xmlns:rdf="http://www.w3.org/1999/02/22-rdf-syntax-ns#"
   xmlns:svg="http://www.w3.org/2000/svg"
   xmlns="http://www.w3.org/2000/svg"
   xmlns:sodipodi="http://sodipodi.sourceforge.net/DTD/sodipodi-0.dtd"
   xmlns:inkscape="http://www.inkscape.org/namespaces/inkscape"
   inkscape:export-ydpi="196.64"
   inkscape:export-xdpi="196.64"
   inkscape:export-filename="D:\Checkout\trunk\cyotek\source\Libraries\Cyotek.Data.Ini\res\icon-128.png"
   inkscape:version="1.0 (4035a4fb49, 2020-05-01)"
   sodipodi:docname="icon-128.svg"
   xml:space="preserve"
   width="70px"
   viewBox="0 0 70 70"
   version="1.1"
   id="Icons"
   height="70px"
   enable-background="new 0 0 70 70"><metadata
     id="metadata9"><rdf:RDF><cc:Work
         rdf:about=""><dc:format>image/svg+xml</dc:format><dc:type
           rdf:resource="http://purl.org/dc/dcmitype/StillImage" /><dc:title></dc:title><cc:license
           rdf:resource="https://creativecommons.org/licenses/by/3.0/" /><dc:description>https://www.iconfinder.com/icons/510859/options_preferences_settings_tools_icon</dc:description><dc:creator><cc:Agent><dc:title>iconify</dc:title></cc:Agent></dc:creator></cc:Work><cc:License
         rdf:about="http://creativecommons.org/licenses/by-sa/4.0/"><cc:permits
           rdf:resource="http://creativecommons.org/ns#Reproduction" /><cc:permits
           rdf:resource="http://creativecommons.org/ns#Distribution" /><cc:requires
           rdf:resource="http://creativecommons.org/ns#Notice" /><cc:requires
           rdf:resource="http://creativecommons.org/ns#Attribution" /><cc:permits
           rdf:resource="http://creativecommons.org/ns#DerivativeWorks" /><cc:requires
           rdf:resource="http://creativecommons.org/ns#ShareAlike" /></cc:License></rdf:RDF></metadata><defs
     id="defs7" /><sodipodi:namedview
     inkscape:current-layer="Icons"
     inkscape:window-maximized="1"
     inkscape:window-y="209"
     inkscape:window-x="1072"
     inkscape:cy="35"
     inkscape:cx="35"
     inkscape:zoom="12.142857"
     showgrid="false"
     id="namedview5"
     inkscape:window-height="1017"
     inkscape:window-width="2560"
     inkscape:pageshadow="2"
     inkscape:pageopacity="0"
     guidetolerance="10"
     gridtolerance="10"
     objecttolerance="10"
     borderopacity="1"
     bordercolor="#666666"
     pagecolor="#ffffff" /><path
     style="stroke:#e6e6e6;fill:#404060;fill-opacity:1"
     id="path2"
     d="M39.508,16c0.606,0,1.214,0.044,1.82,0.13l-6.775,6.775l2.16,10.381l10.381,2.16l6.767-6.767  c0.496,3.538-0.481,7.004-2.861,9.384c-1.931,1.931-4.618,2.994-7.567,2.994c-1.353,0-2.723-0.219-4.071-0.65l-2.323-0.744  L24.22,52.484c-0.895,0.895-2.086,1.388-3.352,1.388c-1.266,0-2.457-0.493-3.352-1.388s-1.388-2.086-1.388-3.352  c0-1.266,0.493-2.457,1.388-3.352L30.337,32.96l-0.744-2.323c-1.39-4.342-0.492-8.801,2.344-11.637  C33.871,17.065,36.56,16,39.508,16 M39.508,12c-3.875,0-7.602,1.373-10.4,4.171c-4.064,4.064-5.115,10.094-3.325,15.686  L14.688,42.952c-3.413,3.413-3.413,8.947,0,12.361c1.707,1.707,3.943,2.56,6.18,2.56c2.237,0,4.474-0.853,6.18-2.56l11.096-11.096  c1.745,0.559,3.533,0.841,5.29,0.841c3.874,0,7.599-1.37,10.395-4.166c5.005-5.005,5.452-12.989,1.628-19.465l-9.664,9.664  l-5.699-1.186l-1.186-5.699l9.664-9.664C45.717,12.856,42.566,12,39.508,12L39.508,12z" /></svg>
